<svg width="180" height="57" viewBox="0 0 180 57" fill="none" xmlns="http://www.w3.org/2000/svg">
<mask id="mask0_673_3272" style="mask-type:alpha" maskUnits="userSpaceOnUse" x="0" y="8" width="40" height="41">
<rect y="8.5" width="40" height="40" fill="#D9D9D9"/>
</mask>
<g mask="url(#mask0_673_3272)">
<path d="M26.6673 44.7498C25.584 44.7498 24.5493 44.5832 23.5632 44.2498C22.577 43.9165 21.6812 43.4582 20.8757 42.8748L19.5007 44.2498C19.1951 44.5554 18.8062 44.7082 18.334 44.7082C17.8618 44.7082 17.4729 44.5554 17.1673 44.2498C16.8618 43.9443 16.709 43.5554 16.709 43.0832C16.709 42.611 16.8618 42.2221 17.1673 41.9165L18.5423 40.5415C17.959 39.736 17.5007 38.8401 17.1673 37.854C16.834 36.8679 16.6673 35.8332 16.6673 34.7498C16.6673 31.9721 17.6395 29.604 19.584 27.6457C21.5284 25.6873 23.8895 24.7221 26.6673 24.7498H36.6257V34.7498C36.6812 37.5276 35.7298 39.8887 33.7715 41.8332C31.8132 43.7776 29.4451 44.7498 26.6673 44.7498ZM22.1673 39.2498C22.4729 39.5554 22.8618 39.7082 23.334 39.7082C23.8062 39.7082 24.1951 39.5554 24.5007 39.2498L27.834 35.9165C28.1395 35.6109 28.2923 35.2221 28.2923 34.7498C28.2923 34.2776 28.1395 33.8887 27.834 33.5832C27.5284 33.2776 27.1395 33.1248 26.6673 33.1248C26.1951 33.1248 25.8062 33.2776 25.5007 33.5832L22.1673 36.9165C21.8618 37.2221 21.709 37.611 21.709 38.0832C21.709 38.5554 21.8618 38.9443 22.1673 39.2498ZM9.16732 29.7498C7.55621 29.7498 6.18121 29.1804 5.04232 28.0415C3.90343 26.9026 3.33398 25.5276 3.33398 23.9165V18.0832H9.16732C10.7784 18.0832 12.1534 18.6526 13.2923 19.7915C14.4312 20.9304 15.0007 22.3054 15.0007 23.9165V29.7498H9.16732ZM18.334 19.7498V15.5832C18.334 14.4165 18.7368 13.4304 19.5423 12.6248C20.3479 11.8193 21.334 11.4165 22.5007 11.4165H26.6673V15.5832C26.6673 16.7498 26.2645 17.7359 25.459 18.5415C24.6534 19.3471 23.6673 19.7498 22.5007 19.7498H18.334Z" fill="#319D38"/>
</g>
<path d="M83.3672 23.3906C83.3672 23.9635 83.3281 24.6536 83.25 25.4609C83.1979 26.2682 83.0938 27.0885 82.9375 27.9219C82.8073 28.7552 82.612 29.5365 82.3516 30.2656C82.0911 30.9948 81.7656 31.5677 81.375 31.9844C81.2188 32.1667 80.7109 32.349 79.8516 32.5312C79.0182 32.6875 78.0026 32.8568 76.8047 33.0391C75.6328 33.1953 74.3698 33.3516 73.0156 33.5078C71.6615 33.6641 70.3724 33.8073 69.1484 33.9375C67.9505 34.0417 66.9089 34.1328 66.0234 34.2109C65.138 34.2891 64.5781 34.3281 64.3438 34.3281L64.0312 42.4531C63.224 42.5052 62.4297 42.5182 61.6484 42.4922C60.8672 42.4401 60.0729 42.4141 59.2656 42.4141C58.7448 42.4141 58.224 42.4271 57.7031 42.4531C57.1823 42.4792 56.6615 42.5182 56.1406 42.5703C56.1406 40.1224 56.1406 37.7005 56.1406 35.3047C56.1406 32.9089 56.0885 30.487 55.9844 28.0391C55.9062 25.8255 55.8281 23.625 55.75 21.4375C55.6979 19.25 55.6458 17.0495 55.5938 14.8359C58.276 14.6536 60.9714 14.4323 63.6797 14.1719C66.4141 13.8854 69.1354 13.7422 71.8438 13.7422C72.3125 13.7422 73.0547 13.7943 74.0703 13.8984C75.0859 13.9766 76.1536 14.1198 77.2734 14.3281C78.3932 14.5104 79.4219 14.7448 80.3594 15.0312C81.3229 15.3177 81.9609 15.6432 82.2734 16.0078C82.4818 16.2422 82.651 16.6979 82.7812 17.375C82.9375 18.0521 83.0547 18.7812 83.1328 19.5625C83.2109 20.3177 83.263 21.0599 83.2891 21.7891C83.3411 22.5182 83.3672 23.0521 83.3672 23.3906ZM72.4297 23.1172C72.4297 22.8828 72.4167 22.5833 72.3906 22.2188C72.3646 21.8542 72.3125 21.5026 72.2344 21.1641C72.1823 20.7995 72.0911 20.474 71.9609 20.1875C71.8307 19.875 71.6615 19.6536 71.4531 19.5234C71.3229 19.4453 71.1146 19.3802 70.8281 19.3281C70.5417 19.276 70.2422 19.237 69.9297 19.2109C69.6172 19.1849 69.3177 19.1719 69.0312 19.1719C68.7448 19.1458 68.5365 19.1328 68.4062 19.1328C67.4427 19.1328 66.4792 19.1849 65.5156 19.2891C64.5521 19.3932 63.5755 19.5234 62.5859 19.6797C62.6641 20.4609 62.7031 21.2292 62.7031 21.9844C62.7292 22.7396 62.7422 23.4948 62.7422 24.25C62.7422 25.474 62.7812 26.7109 62.8594 27.9609C63.1979 27.9609 63.7839 27.9479 64.6172 27.9219C65.4505 27.8698 66.3229 27.8047 67.2344 27.7266C68.1458 27.6224 69.0052 27.4922 69.8125 27.3359C70.6198 27.1536 71.1667 26.9193 71.4531 26.6328C71.9219 26.1901 72.1953 25.6562 72.2734 25.0312C72.3776 24.3802 72.4297 23.7422 72.4297 23.1172ZM95.8672 12.9609C95.6589 15.487 95.4505 18 95.2422 20.5C95.0599 23 94.9036 25.513 94.7734 28.0391C94.6432 30.3307 94.5 32.6094 94.3438 34.875C94.2135 37.1146 94.0833 39.3802 93.9531 41.6719L87.9766 41.9844C87.9766 39.6146 87.9766 37.2708 87.9766 34.9531C88.0026 32.6094 87.9896 30.2526 87.9375 27.8828C87.8854 25.513 87.7812 23.1693 87.625 20.8516C87.4688 18.5078 87.3125 16.151 87.1562 13.7812L95.8672 12.9609ZM125.828 41.0078L119.227 41.2812L118.758 37.3359C118.263 38.013 117.664 38.5859 116.961 39.0547C116.284 39.5234 115.542 39.901 114.734 40.1875C113.953 40.474 113.133 40.6823 112.273 40.8125C111.44 40.9167 110.62 40.9688 109.812 40.9688C109.188 40.9688 108.406 40.9167 107.469 40.8125C106.557 40.7083 105.62 40.5651 104.656 40.3828C103.719 40.1745 102.846 39.9141 102.039 39.6016C101.232 39.2891 100.646 38.9245 100.281 38.5078C99.9948 38.1953 99.7734 37.7005 99.6172 37.0234C99.487 36.3203 99.3958 35.5781 99.3438 34.7969C99.2917 34.0156 99.2656 33.2604 99.2656 32.5312C99.2656 31.8021 99.2656 31.2161 99.2656 30.7734C99.2656 28.8203 99.3438 26.8932 99.5 24.9922C99.6562 23.0911 99.8776 21.2031 100.164 19.3281C100.893 19.25 101.674 19.2109 102.508 19.2109C103.185 19.2109 103.862 19.263 104.539 19.3672C105.216 19.4453 105.893 19.5495 106.57 19.6797C106.57 19.8099 106.583 20.1875 106.609 20.8125C106.635 21.4375 106.661 22.1797 106.688 23.0391C106.74 23.8984 106.792 24.8229 106.844 25.8125C106.896 26.776 106.948 27.6745 107 28.5078C107.078 29.3411 107.156 30.0573 107.234 30.6562C107.339 31.2292 107.443 31.5417 107.547 31.5938C107.938 31.8281 108.367 31.9583 108.836 31.9844C109.305 32.0104 109.76 32.0234 110.203 32.0234C110.516 32.0234 110.997 32.0104 111.648 31.9844C112.326 31.9323 113.016 31.8672 113.719 31.7891C114.422 31.6849 115.073 31.5677 115.672 31.4375C116.271 31.2812 116.674 31.099 116.883 30.8906C116.961 30.8125 117.013 30.5651 117.039 30.1484C117.091 29.7318 117.117 29.276 117.117 28.7812C117.143 28.2865 117.156 27.8307 117.156 27.4141C117.182 26.9714 117.195 26.7109 117.195 26.6328C117.195 25.4609 117.169 24.3021 117.117 23.1562C117.065 22.0104 117.013 20.8516 116.961 19.6797L124.539 19.3281C124.695 21.151 124.839 22.974 124.969 24.7969C125.099 26.5938 125.268 28.4036 125.477 30.2266C125.555 30.8255 125.594 31.4375 125.594 32.0625C125.62 32.6875 125.646 33.3125 125.672 33.9375C125.724 35.1094 125.75 36.2812 125.75 37.4531C125.776 38.625 125.802 39.8099 125.828 41.0078ZM149.07 36.0859L148.406 42.9609C147.573 43.013 146.74 43.0521 145.906 43.0781C145.073 43.1302 144.24 43.1562 143.406 43.1562C142.964 43.1562 142.378 43.1432 141.648 43.1172C140.919 43.0911 140.164 43.0521 139.383 43C138.602 42.9219 137.859 42.8307 137.156 42.7266C136.453 42.5964 135.893 42.4401 135.477 42.2578C134.852 41.9714 134.331 41.5938 133.914 41.125C133.523 40.6562 133.198 40.1484 132.938 39.6016C132.677 39.0286 132.469 38.4297 132.312 37.8047C132.156 37.1536 132.039 36.5156 131.961 35.8906C131.883 35.2917 131.818 34.6536 131.766 33.9766C131.74 33.2734 131.714 32.5573 131.688 31.8281C131.688 31.099 131.688 30.3958 131.688 29.7188C131.688 29.0156 131.688 28.3646 131.688 27.7656V26.5938H129.266C129.37 25.4219 129.422 24.263 129.422 23.1172C129.448 21.9714 129.513 20.8125 129.617 19.6406L131.961 19.7188V13.9375C133.445 14.224 134.917 14.3802 136.375 14.4062C137.859 14.4062 139.344 14.4583 140.828 14.5625L140.75 20.5391L144.031 20.7344C144.031 20.9167 144.031 21.0859 144.031 21.2422C144.057 21.3984 144.07 21.5677 144.07 21.75C144.07 22.4792 144.005 23.1953 143.875 23.8984C143.771 24.5755 143.628 25.2656 143.445 25.9688H140.594C140.542 27.1667 140.503 28.3646 140.477 29.5625C140.451 30.7604 140.438 31.9583 140.438 33.1562C140.438 33.7292 140.451 34.25 140.477 34.7188C140.529 35.1615 140.633 35.5391 140.789 35.8516C140.971 36.1641 141.258 36.3984 141.648 36.5547C142.039 36.7109 142.586 36.7891 143.289 36.7891C144.253 36.7891 145.216 36.724 146.18 36.5938C147.143 36.4635 148.107 36.2943 149.07 36.0859ZM177.898 27.5312C177.898 27.7396 177.898 27.9479 177.898 28.1562C177.898 28.3385 177.885 28.5339 177.859 28.7422C177.833 29.1068 177.768 29.7057 177.664 30.5391C177.56 31.3724 177.417 32.2448 177.234 33.1562C177.052 34.0417 176.831 34.862 176.57 35.6172C176.31 36.3724 176.023 36.8542 175.711 37.0625C175.555 37.1667 175.021 37.2578 174.109 37.3359C173.224 37.4141 172.13 37.4922 170.828 37.5703C169.552 37.6484 168.159 37.7135 166.648 37.7656C165.138 37.8177 163.693 37.8698 162.312 37.9219C160.958 37.9479 159.76 37.974 158.719 38C157.703 38.026 157.026 38.0391 156.688 38.0391C156.531 38.0391 156.258 38.0391 155.867 38.0391C155.503 38.0391 155.112 38.0391 154.695 38.0391C154.279 38.013 153.888 37.987 153.523 37.9609C153.159 37.9349 152.898 37.8958 152.742 37.8438C152.378 37.7135 152.013 37.5052 151.648 37.2188C151.284 36.9062 150.945 36.5677 150.633 36.2031C150.32 35.8125 150.034 35.4219 149.773 35.0312C149.539 34.6146 149.37 34.224 149.266 33.8594C149.188 33.5729 149.122 33.1432 149.07 32.5703C149.018 31.9714 148.979 31.3594 148.953 30.7344C148.927 30.0833 148.901 29.4583 148.875 28.8594C148.875 28.2604 148.875 27.8047 148.875 27.4922C148.875 26.9974 148.888 26.3203 148.914 25.4609C148.94 24.5755 149.018 23.6771 149.148 22.7656C149.279 21.8542 149.461 21.0078 149.695 20.2266C149.956 19.4193 150.32 18.8594 150.789 18.5469C150.997 18.4167 151.388 18.2995 151.961 18.1953C152.534 18.0911 153.211 18 153.992 17.9219C154.773 17.8438 155.607 17.7917 156.492 17.7656C157.378 17.7135 158.237 17.6875 159.07 17.6875C159.93 17.6615 160.724 17.6484 161.453 17.6484C162.182 17.6484 162.768 17.6615 163.211 17.6875C163.602 17.7135 164.161 17.7396 164.891 17.7656C165.62 17.7656 166.427 17.7786 167.312 17.8047C168.224 17.8307 169.161 17.8828 170.125 17.9609C171.089 18.013 171.987 18.0911 172.82 18.1953C173.654 18.2995 174.383 18.4427 175.008 18.625C175.659 18.7812 176.089 18.9766 176.297 19.2109C176.635 19.5755 176.909 20.1224 177.117 20.8516C177.326 21.5807 177.482 22.362 177.586 23.1953C177.716 24.0026 177.794 24.8099 177.82 25.6172C177.872 26.3984 177.898 27.0365 177.898 27.5312ZM169.617 28.3516C169.617 28.0391 169.604 27.6745 169.578 27.2578C169.552 26.8411 169.513 26.4245 169.461 26.0078C169.409 25.5651 169.331 25.1484 169.227 24.7578C169.122 24.3411 168.992 24.0026 168.836 23.7422C168.628 23.4036 168.224 23.1432 167.625 22.9609C167.026 22.7786 166.362 22.6484 165.633 22.5703C164.93 22.4661 164.227 22.401 163.523 22.375C162.846 22.349 162.339 22.3359 162 22.3359C161.818 22.3359 161.492 22.349 161.023 22.375C160.555 22.375 160.06 22.388 159.539 22.4141C159.044 22.4401 158.576 22.4922 158.133 22.5703C157.69 22.6224 157.404 22.6875 157.273 22.7656C157.039 22.9219 156.857 23.1693 156.727 23.5078C156.596 23.8203 156.492 24.1719 156.414 24.5625C156.362 24.9531 156.323 25.3438 156.297 25.7344C156.297 26.099 156.297 26.3984 156.297 26.6328C156.297 26.8672 156.31 27.2969 156.336 27.9219C156.388 28.5208 156.44 29.1719 156.492 29.875C156.57 30.5521 156.661 31.1771 156.766 31.75C156.87 32.3229 157 32.6875 157.156 32.8438C157.339 33.0521 157.677 33.2214 158.172 33.3516C158.693 33.4818 159.24 33.599 159.812 33.7031C160.411 33.7812 160.984 33.8464 161.531 33.8984C162.078 33.9245 162.469 33.9375 162.703 33.9375C163.12 33.9375 163.615 33.9245 164.188 33.8984C164.76 33.8724 165.333 33.8073 165.906 33.7031C166.505 33.599 167.065 33.4557 167.586 33.2734C168.107 33.0911 168.523 32.8438 168.836 32.5312C169.018 32.349 169.161 32.0755 169.266 31.7109C169.37 31.3464 169.448 30.9557 169.5 30.5391C169.552 30.1224 169.578 29.7188 169.578 29.3281C169.604 28.9115 169.617 28.5859 169.617 28.3516Z" fill="#319D38"/>
</svg>
