 <svg
    width="26"
    height="24"
    viewBox="0 0 26 24"
    fill="none"
    xmlns="http://www.w3.org/2000/svg"
  >
    <path
      d="M7.90625 23.453C7.90625 23.7554 7.6614 24 7.35929 24H4.77127C4.46946 24 4.22461 23.7554 4.22461 23.453V20.7415C4.22461 20.4394 4.46946 20.1946 4.77127 20.1946H7.35929C7.6614 20.1946 7.90625 20.4394 7.90625 20.7415V23.453Z"
      fill="#333333"
    />
    <path
      d="M22.8343 23.453C22.8343 23.7554 22.5891 24 22.287 24H19.699C19.3969 24 19.1523 23.7554 19.1523 23.453V20.7415C19.1523 20.4394 19.3969 20.1946 19.699 20.1946H22.287C22.5891 20.1946 22.8343 20.4394 22.8343 20.7415V23.453Z"
      fill="#333333"
    />
    <path
      d="M2.69474 7.11026C2.67535 7.27727 2.52474 7.39716 2.35773 7.37777L0.952477 7.21792C0.78517 7.19883 0.665288 7.04823 0.684673 6.88092L0.964408 4.42441C0.983495 4.2574 1.1341 4.13721 1.30111 4.1569L2.70667 4.31675C2.87397 4.33583 2.99386 4.48644 2.97447 4.65375L2.69474 7.11026Z"
      fill="#333333"
    />
    <path
      d="M3.93769 10.3449L1.89214 10.1597C1.72602 10.1441 1.57572 10.066 1.46925 9.93807C1.36248 9.80983 1.31208 9.64819 1.32669 9.48238L1.90138 3.14531C1.91659 2.97919 1.99532 2.82918 2.12326 2.72242C2.2512 2.61565 2.41344 2.56555 2.57896 2.58046L4.0543 2.71377L4.03194 2.96219L2.55659 2.82888C2.45579 2.82023 2.35976 2.85006 2.28282 2.91388C2.20617 2.978 2.15876 3.06836 2.15011 3.16767L1.57512 9.50475C1.56647 9.60435 1.59659 9.70128 1.66071 9.77822C1.72483 9.85487 1.8146 9.90229 1.91421 9.91123L3.95976 10.0964L3.93769 10.3449Z"
      fill="#292929"
    />
    <path
      d="M23.9874 7.11026C24.0061 7.27727 24.1567 7.39716 24.3241 7.37777L25.7296 7.21792C25.8963 7.19883 26.0168 7.04823 25.9974 6.88092L25.7171 4.42441C25.6983 4.2574 25.5474 4.13721 25.3804 4.1569L23.9751 4.31675C23.8081 4.33583 23.6882 4.48644 23.707 4.65375L23.9874 7.11026Z"
      fill="#333333"
    />
    <path
      d="M22.7442 10.3449L24.7904 10.1597C24.9565 10.1441 25.1062 10.066 25.2133 9.93807C25.3197 9.80983 25.3699 9.64819 25.3552 9.48238L24.7806 3.14531C24.7656 2.97919 24.6869 2.82918 24.559 2.72242C24.431 2.61565 24.2685 2.56555 24.1033 2.58046L22.6279 2.71377L22.65 2.96219L24.1259 2.82888C24.2267 2.82023 24.3222 2.85006 24.3994 2.91388C24.4761 2.978 24.5232 3.06836 24.5321 3.16767L25.1068 9.50475C25.1158 9.60435 25.0853 9.70128 25.0218 9.77822C24.9574 9.85487 24.8673 9.90229 24.7677 9.91123L22.7225 10.0964L22.7442 10.3449Z"
      fill="#292929"
    />
    <path
      d="M22.4107 17.1402C22.4107 17.7342 21.929 18.2159 21.3353 18.2159H5.48587C4.89209 18.2159 4.41016 17.7342 4.41016 17.1402V16.136C4.41016 15.5419 4.89209 15.0603 5.48587 15.0603H21.3353C21.929 15.0603 22.4107 15.5419 22.4107 16.136V17.1402Z"
      fill="#333333"
    />
    <path
      d="M23.8093 20.8408C23.8093 21.4348 23.3274 21.9165 22.7336 21.9165H4.08743C3.49336 21.9165 3.01172 21.4348 3.01172 20.8408V17.7138C3.01172 17.1198 3.49336 16.6384 4.08743 16.6384H22.7336C23.3271 16.6384 23.8093 17.1198 23.8093 17.7138V20.8408Z"
      fill="#0088FF"
    />
    <path
      d="M22.9132 1.07601V15.1316C22.9132 15.7271 22.431 16.2073 21.8375 16.2073H4.9846C4.43824 16.2073 3.98851 15.8029 3.91992 15.2732C3.91127 15.2282 3.90918 15.1805 3.90918 15.1313V1.07571C3.90918 0.481939 4.39083 0 4.9846 0H21.8375C22.431 0 22.9132 0.482237 22.9132 1.07601Z"
      fill="#0088FF"
    />
    <path
      d="M23.5587 9.04193C23.5587 9.63571 23.077 10.1176 22.4829 10.1176H4.19554C3.60146 10.1176 3.12012 9.63571 3.12012 9.04193V2.94046C3.12012 2.34639 3.60146 1.86475 4.19554 1.86475H22.4829C23.0767 1.86475 23.5587 2.34609 23.5587 2.94046V9.04193Z"
      fill="#0088FF"
    />
    <path
      d="M5.48696 9.64559C4.71604 9.64559 4.08887 9.01811 4.08887 8.24719V3.72932C4.08887 2.9581 4.71604 2.33032 5.48696 2.33032H21.3364C22.1073 2.33032 22.735 2.9578 22.735 3.72932V8.24689C22.735 9.01811 22.1073 9.64529 21.3364 9.64529L5.48696 9.64559Z"
      fill="#666666"
    />
    <path
      d="M20.9943 10.9724C20.8434 11.2691 20.6692 11.5811 20.5016 11.8694C20.4154 12.018 20.3316 12.1602 20.2559 12.2891C20.0134 12.6935 19.8303 12.9798 19.8303 12.9798C19.8303 13.0504 19.824 13.1193 19.8109 13.1858C19.7811 13.3409 19.7167 13.485 19.6257 13.6075C19.4328 13.8783 19.1139 14.0552 18.7546 14.0552H8.30701C7.94794 14.0552 7.62914 13.8783 7.43619 13.6075C7.34523 13.485 7.28081 13.3406 7.25069 13.1858C7.23786 13.119 7.2316 13.0504 7.2316 12.9798C7.2316 12.9798 6.99272 12.6935 6.67212 12.2891C6.56864 12.1599 6.4571 12.018 6.34079 11.8694C6.1195 11.5811 5.883 11.2691 5.67394 10.9724C5.18157 10.2838 4.82638 9.68164 5.08047 9.68164H21.3372C21.5901 9.68164 21.3513 10.2841 20.9943 10.9724Z"
      fill="#333333"
    />
    <path
      d="M5.25423 21.0217C5.25423 21.2547 5.06545 21.4431 4.83253 21.4431C4.60021 21.4431 4.41113 21.2547 4.41113 21.0217C4.41113 20.7891 4.60021 20.6003 4.83253 20.6003C5.06574 20.6003 5.25423 20.7888 5.25423 21.0217Z"
      fill="white"
    />
    <path
      d="M22.3314 21.0217C22.3314 21.2547 22.1426 21.4431 21.9097 21.4431C21.6774 21.4431 21.4883 21.2547 21.4883 21.0217C21.4883 20.7891 21.6774 20.6003 21.9097 20.6003C22.1426 20.6003 22.3314 20.7888 22.3314 21.0217Z"
      fill="white"
    />
    <path
      d="M18.7858 19.4443C18.7858 19.6817 18.5931 19.8744 18.3551 19.8744H8.70086C8.46317 19.8744 8.27051 19.6817 8.27051 19.4443V18.3951C8.27051 18.1574 8.46347 17.9651 8.70086 17.9651H18.3551C18.5931 17.9651 18.7858 18.1574 18.7858 18.3951V19.4443Z"
      fill="#0E72CA"
    />
    <path
      d="M16.7188 20.4391C16.7188 20.6768 16.5262 20.8692 16.2888 20.8692H10.5336C10.2962 20.8692 10.1035 20.6765 10.1035 20.4391V20.0016C10.1035 19.7639 10.2965 19.5713 10.5336 19.5713H16.2888C16.5262 19.5713 16.7188 19.7639 16.7188 20.0016V20.4391Z"
      fill="#333333"
    />
    <path
      d="M14.5173 18.2162C14.5173 18.3525 14.4073 18.4631 14.2704 18.4631H12.1646C12.0283 18.4631 11.918 18.3525 11.918 18.2162C11.918 18.0796 12.0283 17.9692 12.1646 17.9692H14.2704C14.4073 17.9689 14.5173 18.0796 14.5173 18.2162Z"
      fill="#333333"
    />
    <path
      d="M9.74502 20.1701C9.74502 20.4075 9.55237 20.6002 9.31468 20.6002H3.77478C3.53709 20.6002 3.34473 20.4075 3.34473 20.1701V17.965C3.34473 17.727 3.53709 17.5347 3.77478 17.5347H8.23897C8.47696 17.5347 8.66961 17.7273 8.66961 17.965L9.74502 20.1701Z"
      fill="#0088FF"
    />
    <path
      d="M8.92808 19.7224C8.92808 20.1524 8.73661 20.1524 8.49803 20.1524H4.33922C4.10034 20.1524 3.90918 19.9589 3.90918 19.7224V18.3583C3.90918 18.1218 4.10064 17.9282 4.33922 17.9282H7.62034C7.85923 17.9282 8.14761 18.1498 8.28331 18.3583C8.38411 18.5113 8.68532 18.9437 8.83592 19.3308C8.89169 19.4728 8.92808 19.6084 8.92808 19.7224Z"
      fill="#B2B2B2"
    />
    <path
      d="M8.83563 19.331C8.75601 19.413 8.63611 19.413 8.49803 19.413H4.33923C4.10035 19.413 3.90918 19.2191 3.90918 18.983V18.3588C3.90918 18.1223 4.10065 17.9287 4.33923 17.9287H7.62034C7.85923 17.9287 8.14761 18.1503 8.28331 18.3588C8.38411 18.5115 8.68503 18.9439 8.83563 19.331Z"
      fill="#CCCCCC"
    />
    <path
      d="M8.13057 19.4442C8.13057 19.6815 7.93821 19.8742 7.70052 19.8742H4.8408C4.60281 19.8742 4.41016 19.6815 4.41016 19.4442V18.8525C4.41016 18.6148 4.60281 18.4221 4.8408 18.4221H7.70052C7.9385 18.4221 8.13057 18.6148 8.13057 18.8525V19.4442Z"
      fill="#E6E6E6"
    />
    <path
      d="M7.59362 19.1409C7.59362 19.3783 7.40096 19.5709 7.16328 19.5709H5.37927C5.14158 19.5709 4.94922 19.3783 4.94922 19.1409V18.9399C4.94922 18.7019 5.14188 18.5095 5.37927 18.5095H7.16328C7.40096 18.5095 7.59362 18.7022 7.59362 18.9399V19.1409Z"
      fill="white"
    />
    <path
      d="M17.1133 20.1701C17.1133 20.4075 17.3059 20.6002 17.5436 20.6002H23.0835C23.3212 20.6002 23.5139 20.4075 23.5139 20.1701V17.965C23.5139 17.727 23.3212 17.5347 23.0835 17.5347H18.6193C18.3814 17.5347 18.189 17.7273 18.189 17.965L17.1133 20.1701Z"
      fill="#0088FF"
    />
    <path
      d="M17.9297 19.7224C17.9297 20.1524 18.1214 20.1524 18.3603 20.1524H22.5185C22.7574 20.1524 22.9489 19.9589 22.9489 19.7224V18.3583C22.9489 18.1218 22.7571 17.9282 22.5185 17.9282H19.238C18.9991 17.9282 18.7108 18.1498 18.5751 18.3583C18.474 18.5113 18.1724 18.9437 18.0221 19.3308C17.9664 19.4728 17.9297 19.6084 17.9297 19.7224Z"
      fill="#B2B2B2"
    />
    <path
      d="M18.0234 19.331C18.1031 19.413 18.2232 19.413 18.3613 19.413H22.5195C22.7584 19.413 22.9499 19.2191 22.9499 18.983V18.3588C22.9499 18.1223 22.7581 17.9287 22.5195 17.9287H19.239C19.0001 17.9287 18.7117 18.1503 18.5761 18.3588C18.4753 18.5115 18.1737 18.9439 18.0234 19.331Z"
      fill="#CCCCCC"
    />
    <path
      d="M18.7266 19.4442C18.7266 19.6815 18.9195 19.8742 19.1566 19.8742H22.0166C22.2543 19.8742 22.447 19.6815 22.447 19.4442V18.8525C22.447 18.6148 22.254 18.4221 22.0166 18.4221H19.1566C18.9192 18.4221 18.7266 18.6148 18.7266 18.8525V19.4442Z"
      fill="#E6E6E6"
    />
    <path
      d="M19.2646 19.1409C19.2646 19.3783 19.4573 19.5709 19.6953 19.5709H21.4793C21.717 19.5709 21.909 19.3783 21.909 19.1409V18.9399C21.909 18.7019 21.7167 18.5095 21.4793 18.5095H19.6953C19.4573 18.5095 19.2646 18.7022 19.2646 18.9399V19.1409Z"
      fill="white"
    />
    <path
      d="M14.8815 21.6802C14.8815 21.8108 14.7756 21.9169 14.6444 21.9169H12.1548C12.0238 21.9169 11.918 21.8111 11.918 21.6802C11.918 21.5495 12.0238 21.4434 12.1548 21.4434H14.6444C14.7753 21.4434 14.8815 21.5495 14.8815 21.6802Z"
      fill="#0088FF"
    />
    <path
      d="M20.9945 10.9724C20.8436 11.2692 20.6694 11.5811 20.5018 11.8695H6.34067C6.11938 11.5811 5.88289 11.2692 5.67383 10.9724H20.9945Z"
      fill="#1A1A1A"
    />
    <path
      d="M20.2556 12.2896C20.0132 12.6939 19.83 12.9803 19.83 12.9803C19.83 13.0509 19.8238 13.1198 19.8107 13.1863H7.25044C7.23762 13.1195 7.23136 13.0509 7.23136 12.9803C7.23136 12.9803 6.99247 12.6939 6.67188 12.2896H20.2556Z"
      fill="#1A1A1A"
    />
    <path
      d="M19.6251 13.6079C19.4321 13.8787 19.1133 14.0556 18.7539 14.0556H8.30637C7.9473 14.0556 7.6285 13.8787 7.43555 13.6079H19.6251Z"
      fill="#1A1A1A"
    />
    <path
      d="M10.9557 16.1899V16.6199C10.9557 16.8567 10.7625 17.0503 10.5257 17.0503H8.33757C8.10078 17.0503 7.90723 16.8567 7.90723 16.6199V16.1899C7.90723 16.0285 7.99758 15.8863 8.13119 15.8156C8.19143 15.7789 8.26212 15.7595 8.33757 15.7595H10.5257C10.5624 15.7595 10.5987 15.7637 10.633 15.7747C10.8182 15.8219 10.9557 15.9898 10.9557 16.1899Z"
      fill="#333333"
    />
    <path
      d="M10.6327 15.7748V16.2436C10.6327 16.4801 10.4395 16.6736 10.2027 16.6736H8.56091C8.32442 16.6736 8.13086 16.4801 8.13086 16.2436V15.8153C8.1911 15.7787 8.26179 15.7593 8.33724 15.7593H10.5253C10.5617 15.7596 10.5981 15.7638 10.6327 15.7748Z"
      fill="#1A1A1A"
    />
    <path
      d="M18.638 16.1899V16.6199C18.638 16.8567 18.4445 17.0503 18.2077 17.0503H16.0196C15.7828 17.0503 15.5898 16.8567 15.5898 16.6199V16.1899C15.5898 16.0285 15.6799 15.8863 15.8132 15.8156C15.8738 15.7789 15.9444 15.7595 16.0196 15.7595H18.2077C18.2444 15.7595 18.2811 15.7637 18.3154 15.7747C18.5006 15.8219 18.638 15.9898 18.638 16.1899Z"
      fill="#333333"
    />
    <path
      d="M18.3146 15.7748V16.2436C18.3146 16.4801 18.1214 16.6736 17.8846 16.6736H16.2428C16.006 16.6736 15.8125 16.4801 15.8125 16.2436V15.8153C15.873 15.7787 15.9437 15.7593 16.0189 15.7593H18.207C18.2437 15.7596 18.2803 15.7638 18.3146 15.7748Z"
      fill="#1A1A1A"
    />
    <path
      d="M16.1181 19.5715V19.7892C16.1181 20.0278 15.9242 20.2193 15.6877 20.2193H11.0622C10.8254 20.2193 10.6318 20.0275 10.6318 19.7892V19.5715H16.1181Z"
      fill="#1A1A1A"
    />
    <path
      d="M23.2723 16.8623C23.2723 16.9666 23.1876 17.0507 23.0839 17.0507H19.8138C19.7097 17.0507 19.625 16.9666 19.625 16.8623C19.625 16.7582 19.7097 16.6741 19.8138 16.6741H23.0839C23.1876 16.6741 23.2723 16.7582 23.2723 16.8623Z"
      fill="#81C4FF"
    />
    <path
      d="M18.1899 17.7847C18.1899 17.884 18.109 17.9652 18.0094 17.9652H8.65308C8.55347 17.9652 8.47266 17.884 8.47266 17.7847C8.47266 17.6851 8.55377 17.604 8.65308 17.604H18.0094C18.109 17.604 18.1899 17.6851 18.1899 17.7847Z"
      fill="#81C4FF"
    />
    <path
      d="M22.4106 1.04931C22.4106 1.27179 22.2304 1.45222 22.0074 1.45222H12.6307C12.4083 1.45222 12.2275 1.27179 12.2275 1.04931C12.2275 0.826533 12.408 0.645508 12.6307 0.645508H22.0074C22.2301 0.645508 22.4106 0.826533 22.4106 1.04931Z"
      fill="#81C4FF"
    />
    <path
      d="M6.10832 15.2197L3.91992 15.2736C3.91127 15.2286 3.90918 15.1809 3.90918 15.1317V11.2437L4.34162 11.0612C4.56081 10.9684 4.81281 11.0719 4.90526 11.289L6.33587 14.6563C6.42832 14.8734 6.32722 15.1269 6.10832 15.2197Z"
      fill="#0E72CA"
    />
    <path
      d="M20.7021 15.2197L22.8899 15.2736C22.8985 15.2286 22.9006 15.1809 22.9006 15.1317V11.2437L22.4688 11.0612C22.2493 10.9684 21.9976 11.0719 21.9048 11.289L20.4736 14.6563C20.3812 14.8734 20.4826 15.1269 20.7021 15.2197Z"
      fill="#0E72CA"
    />
    <path
      d="M18.1886 6.94956C18.1886 7.18755 17.996 7.37991 17.7583 7.37991H9.2656C9.02762 7.37991 8.83496 7.18725 8.83496 6.94956V5.10949C8.83496 4.8721 9.02792 4.67944 9.2656 4.67944H17.7583C17.996 4.67944 18.1886 4.8721 18.1886 5.10949V6.94956Z"
      fill="#808080"
    />
    <path
      d="M22.3326 2.32787V3.72418C22.3326 3.96306 22.1391 4.15422 21.9023 4.15422H4.84148C4.60677 4.15422 4.41262 3.96485 4.41113 3.72835C4.41113 3.72597 4.41113 3.72597 4.41113 3.72388V2.38811C4.70578 2.14923 5.08036 2.00757 5.48684 2.00757H21.3368C21.7066 2.00757 22.0508 2.12537 22.3326 2.32787Z"
      fill="#4D4D4D"
    />
    <path
      d="M22.3325 2.32787C22.0507 2.12537 21.7065 2.00757 21.3367 2.00757H5.4867C5.08022 2.00757 4.70564 2.14953 4.41099 2.38811C4.01733 2.70214 3.76562 3.18617 3.76562 3.72835V8.24652C3.76562 9.19549 4.53804 9.96761 5.48701 9.96761H21.337C22.2857 9.96761 23.0578 9.19549 23.0578 8.24652V3.72835C23.0578 3.15217 22.7712 2.63981 22.3325 2.32787ZM22.4118 8.24682C22.4118 8.8403 21.9302 9.32224 21.337 9.32224H5.48701C4.89293 9.32224 4.41129 8.8403 4.41129 8.24682V3.72865C4.41129 3.72626 4.41129 3.72626 4.41129 3.72418C4.41308 3.13249 4.89532 2.65264 5.48701 2.65264H21.337C21.7864 2.65264 22.1714 2.9282 22.3328 3.31948C22.3844 3.44653 22.4121 3.58431 22.4121 3.72835V8.24682H22.4118Z"
      fill="#333333"
    />
    <path
      d="M10.3636 8.87478C10.3636 9.11276 10.1709 9.30512 9.93355 9.30512H6.49616C6.25877 9.30512 6.06641 9.11247 6.06641 8.87478V7.47668C6.06641 7.23869 6.25877 7.04663 6.49616 7.04663H9.93355C10.1709 7.04663 10.3636 7.23899 10.3636 7.47668V8.87478Z"
      fill="#4D4D4D"
    />
    <path
      d="M20.7864 8.87478C20.7864 9.11276 20.5938 9.30512 20.3567 9.30512H16.9196C16.6819 9.30512 16.4893 9.11247 16.4893 8.87478V7.47668C16.4893 7.23869 16.6819 7.04663 16.9196 7.04663H20.3567C20.5938 7.04663 20.7864 7.23899 20.7864 7.47668V8.87478Z"
      fill="#4D4D4D"
    />
    <path
      d="M14.0168 8.7673C14.0168 8.85647 13.9446 8.92864 13.8554 8.92864H8.99758C8.9084 8.92864 8.83594 8.85647 8.83594 8.7673C8.83594 8.67813 8.9084 8.60596 8.99758 8.60596H13.8554C13.9446 8.60596 14.0168 8.67813 14.0168 8.7673Z"
      fill="#333333"
    />
    <path
      d="M9.15573 8.72422C9.1945 8.82084 9.14738 8.92999 9.05046 8.96906L6.9035 9.82856C6.80717 9.86733 6.69743 9.82051 6.65896 9.72358C6.62049 9.62696 6.66731 9.51751 6.76394 9.47903L8.91089 8.61954C9.00722 8.58077 9.11696 8.62789 9.15573 8.72422Z"
      fill="#333333"
    />
    <path
      d="M21.7089 8.7673C21.7089 8.85647 21.6367 8.92864 21.5472 8.92864H16.6897C16.6005 8.92864 16.5283 8.85647 16.5283 8.7673C16.5283 8.67813 16.6005 8.60596 16.6897 8.60596H21.5472C21.6367 8.60596 21.7089 8.67813 21.7089 8.7673Z"
      fill="#333333"
    />
    <path
      d="M16.846 8.72422C16.8848 8.82084 16.838 8.92999 16.7417 8.96906L14.5941 9.82856C14.4975 9.86733 14.3883 9.82051 14.3496 9.72358C14.3108 9.62696 14.3576 9.51751 14.4542 9.47903L16.6015 8.61954C16.6981 8.58077 16.8079 8.62789 16.846 8.72422Z"
      fill="#333333"
    />
    <path
      d="M17.6063 10.0135C17.6063 10.1966 17.4584 10.3451 17.275 10.3451H9.7626C9.57918 10.3451 9.43066 10.1966 9.43066 10.0135C9.43066 9.83035 9.57918 9.68213 9.7626 9.68213H17.275C17.4584 9.68183 17.6063 9.83005 17.6063 10.0135Z"
      fill="#1A1A1A"
    />
    <path
      d="M21.4416 5.59942C21.4416 5.83711 21.249 6.02947 21.0113 6.02947H14.447C14.209 6.02947 14.0166 5.83681 14.0166 5.59942V3.87267C14.0166 3.63528 14.2093 3.44263 14.447 3.44263H21.0113C21.249 3.44263 21.4416 3.63528 21.4416 3.87267V5.59942Z"
      fill="white"
    />
  </svg>