<svg width="25" height="24" viewBox="0 0 25 24" fill="none" xmlns="http://www.w3.org/2000/svg">
<g clip-path="url(#clip0_17066_1965)">
<path d="M3.16667 3.33325C2.45942 3.33325 1.78115 3.6142 1.28105 4.1143C0.780952 4.6144 0.5 5.29267 0.5 5.99992L0.5 17.9999C0.5 18.7072 0.780952 19.3854 1.28105 19.8855C1.78115 20.3856 2.45942 20.6666 3.16667 20.6666H8.5V3.33325H3.16667Z" fill="#009A49"/>
<path d="M8.5 3.33325H16.5V20.6666H8.5V3.33325Z" fill="#EEEEEE"/>
<path d="M21.8333 3.33325H16.5V20.6666H21.8333C22.5406 20.6666 23.2189 20.3856 23.719 19.8855C24.219 19.3854 24.5 18.7072 24.5 17.9999V5.99992C24.5 5.29267 24.219 4.6144 23.719 4.1143C23.2189 3.6142 22.5406 3.33325 21.8333 3.33325Z" fill="#009A49"/>
</g>
<defs>
<clipPath id="clip0_17066_1965">
<rect width="24" height="24" fill="white" transform="translate(0.5)"/>
</clipPath>
</defs>
</svg>
