<svg width="21" height="18" viewBox="0 0 21 18" fill="none" xmlns="http://www.w3.org/2000/svg">
<path d="M2.39998 18V5.1L0.449982 0.85L2.24998 0L4.59998 5.05H16.2L18.55 0L20.35 0.85L18.4 5.1V18H2.39998ZM8.39998 11H12.4C12.6833 11 12.9208 10.9042 13.1125 10.7125C13.3041 10.5208 13.4 10.2833 13.4 10C13.4 9.71667 13.3041 9.47917 13.1125 9.2875C12.9208 9.09583 12.6833 9 12.4 9H8.39998C8.11665 9 7.87915 9.09583 7.68748 9.2875C7.49582 9.47917 7.39998 9.71667 7.39998 10C7.39998 10.2833 7.49582 10.5208 7.68748 10.7125C7.87915 10.9042 8.11665 11 8.39998 11Z" fill="#319D38"/>
</svg>
