<svg width="36" height="36" viewBox="0 0 36 36" fill="none" xmlns="http://www.w3.org/2000/svg">
<mask id="mask0_932_1231" style="mask-type:alpha" maskUnits="userSpaceOnUse" x="0" y="0" width="36" height="36">
<rect width="36" height="36" fill="#D9D9D9"/>
</mask>
<g mask="url(#mask0_932_1231)">
<path d="M3 34.5V31.5H33V34.5H3ZM6 30V21C5.175 19.65 4.5375 18.2187 4.0875 16.7062C3.6375 15.1937 3.4125 13.65 3.4125 12.075C3.4125 10.55 3.60625 9.05 3.99375 7.575C4.38125 6.1 4.8375 4.65 5.3625 3.225C5.5625 2.7 5.8875 2.28125 6.3375 1.96875C6.7875 1.65625 7.2875 1.5 7.8375 1.5C8.6125 1.5 9.275 1.7625 9.825 2.2875C10.375 2.8125 10.6 3.4375 10.5 4.1625L10.0875 7.575C9.9375 8.775 10.0437 9.9125 10.4062 10.9875C10.7688 12.0625 11.3125 13.0063 12.0375 13.8188C12.7625 14.6313 13.6375 15.2812 14.6625 15.7687C15.6875 16.2562 16.8 16.5 18 16.5C19.5 16.5 21.0062 16.6563 22.5187 16.9688C24.0312 17.2812 25.35 17.725 26.475 18.3C27.6 18.875 28.4688 19.6063 29.0813 20.4938C29.6938 21.3813 30 22.475 30 23.775V30H15V28.6125C15 27.7625 15.2875 27.0313 15.8625 26.4188C16.4375 25.8063 17.15 25.5 18 25.5H24V22.5H18C16.325 22.5 14.9062 23.1 13.7437 24.3C12.5812 25.5 12 26.9375 12 28.6125V30H6ZM18 15C16.35 15 14.9375 14.4125 13.7625 13.2375C12.5875 12.0625 12 10.65 12 9C12 7.35 12.5875 5.9375 13.7625 4.7625C14.9375 3.5875 16.35 3 18 3C19.65 3 21.0625 3.5875 22.2375 4.7625C23.4125 5.9375 24 7.35 24 9C24 10.65 23.4125 12.0625 22.2375 13.2375C21.0625 14.4125 19.65 15 18 15Z" fill="#319D38"/>
</g>
</svg>
