<svg width="37" height="36" viewBox="0 0 37 36" fill="none" xmlns="http://www.w3.org/2000/svg">
<mask id="mask0_4363_120122" style="mask-type:alpha" maskUnits="userSpaceOnUse" x="0" y="0" width="37" height="36">
<rect x="0.5" width="36" height="36" fill="#D9D9D9"/>
</mask>
<g mask="url(#mask0_4363_120122)">
<path d="M3.5 34.5V31.5H33.5V34.5H3.5ZM6.5 30V21C5.675 19.65 5.0375 18.2188 4.5875 16.7062C4.1375 15.1937 3.9125 13.65 3.9125 12.075C3.9125 10.55 4.10625 9.05 4.49375 7.575C4.88125 6.1 5.3375 4.65 5.8625 3.225C6.0625 2.7 6.3875 2.28125 6.8375 1.96875C7.2875 1.65625 7.7875 1.5 8.3375 1.5C9.1125 1.5 9.775 1.7625 10.325 2.2875C10.875 2.8125 11.1 3.4375 11 4.1625L10.5875 7.575C10.4375 8.775 10.5437 9.9125 10.9062 10.9875C11.2688 12.0625 11.8125 13.0063 12.5375 13.8188C13.2625 14.6313 14.1375 15.2812 15.1625 15.7687C16.1875 16.2562 17.3 16.5 18.5 16.5C20 16.5 21.5063 16.6562 23.0187 16.9688C24.5312 17.2812 25.85 17.725 26.975 18.3C28.1 18.875 28.9688 19.6063 29.5813 20.4938C30.1938 21.3813 30.5 22.475 30.5 23.775V30H6.5ZM9.5 27H27.5V23.775C27.5 23.175 27.35 22.6438 27.05 22.1813C26.75 21.7188 26.325 21.35 25.775 21.075C24.75 20.575 23.5625 20.1875 22.2125 19.9125C20.8625 19.6375 19.625 19.5 18.5 19.5C16.85 19.5 15.3188 19.1625 13.9062 18.4875C12.4937 17.8125 11.2937 16.9062 10.3062 15.7687C9.31875 14.6312 8.575 13.3188 8.075 11.8313C7.575 10.3438 7.425 8.8 7.625 7.2C7.375 7.95 7.19375 8.75 7.08125 9.6C6.96875 10.45 6.9125 11.275 6.9125 12.075C6.9125 13.525 7.16875 14.9188 7.68125 16.2563C8.19375 17.5938 8.8 18.9 9.5 20.175V27ZM18.5 15C16.85 15 15.4375 14.4125 14.2625 13.2375C13.0875 12.0625 12.5 10.65 12.5 9C12.5 7.35 13.0875 5.9375 14.2625 4.7625C15.4375 3.5875 16.85 3 18.5 3C20.15 3 21.5625 3.5875 22.7375 4.7625C23.9125 5.9375 24.5 7.35 24.5 9C24.5 10.65 23.9125 12.0625 22.7375 13.2375C21.5625 14.4125 20.15 15 18.5 15ZM18.5 12C19.325 12 20.0312 11.7063 20.6188 11.1187C21.2063 10.5312 21.5 9.825 21.5 9C21.5 8.175 21.2063 7.46875 20.6188 6.88125C20.0312 6.29375 19.325 6 18.5 6C17.675 6 16.9688 6.29375 16.3813 6.88125C15.7938 7.46875 15.5 8.175 15.5 9C15.5 9.825 15.7938 10.5312 16.3813 11.1187C16.9688 11.7063 17.675 12 18.5 12ZM12.5 30V28.6125C12.5 26.9375 13.0813 25.5 14.2437 24.3C15.4062 23.1 16.825 22.5 18.5 22.5H24.5V25.5H18.5C17.65 25.5 16.9375 25.8063 16.3625 26.4188C15.7875 27.0313 15.5 27.7625 15.5 28.6125V30H12.5Z" fill="#319D38"/>
</g>
</svg>
