 <svg
    width="26"
    height="24"
    viewBox="0 0 26 24"
    fill="none"
    xmlns="http://www.w3.org/2000/svg"
  >
    <path
      d="M7.90625 23.453C7.90625 23.7554 7.6614 24 7.35929 24H4.77127C4.46946 24 4.22461 23.7554 4.22461 23.453V20.7415C4.22461 20.4394 4.46946 20.1946 4.77127 20.1946H7.35929C7.6614 20.1946 7.90625 20.4394 7.90625 20.7415V23.453Z"
      fill="#333333"
    />
    <path
      d="M22.8343 23.453C22.8343 23.7554 22.5891 24 22.287 24H19.699C19.3969 24 19.1523 23.7554 19.1523 23.453V20.7415C19.1523 20.4394 19.3969 20.1946 19.699 20.1946H22.287C22.5891 20.1946 22.8343 20.4394 22.8343 20.7415V23.453Z"
      fill="#333333"
    />
    <path
      d="M2.69376 7.11026C2.67437 7.27727 2.52377 7.39716 2.35676 7.37777L0.9515 7.21792C0.784194 7.19883 0.664311 7.04823 0.683696 6.88092L0.963432 4.42441C0.982519 4.2574 1.13312 4.13721 1.30013 4.1569L2.70569 4.31675C2.873 4.33583 2.99288 4.48644 2.97349 4.65375L2.69376 7.11026Z"
      fill="#333333"
    />
    <path
      d="M3.93574 10.3449L1.89018 10.1597C1.72407 10.1441 1.57376 10.066 1.46729 9.93807C1.36053 9.80983 1.31013 9.64819 1.32474 9.48238L1.89943 3.14531C1.91464 2.97919 1.99337 2.82918 2.12131 2.72242C2.24925 2.61565 2.41149 2.56555 2.57701 2.58046L4.05235 2.71377L4.02998 2.96219L2.55464 2.82888C2.45384 2.82023 2.35781 2.85006 2.28086 2.91388C2.20422 2.978 2.15681 3.06836 2.14816 3.16767L1.57317 9.50475C1.56452 9.60435 1.59464 9.70128 1.65876 9.77822C1.72288 9.85487 1.81264 9.90229 1.91225 9.91123L3.95781 10.0964L3.93574 10.3449Z"
      fill="#292929"
    />
    <path
      d="M23.9874 7.11026C24.0061 7.27727 24.1567 7.39716 24.3241 7.37777L25.7296 7.21792C25.8963 7.19883 26.0168 7.04823 25.9974 6.88092L25.7171 4.42441C25.6983 4.2574 25.5474 4.13721 25.3804 4.1569L23.9751 4.31675C23.8081 4.33583 23.6882 4.48644 23.707 4.65375L23.9874 7.11026Z"
      fill="#333333"
    />
    <path
      d="M22.7433 10.3449L24.7894 10.1597C24.9555 10.1441 25.1052 10.066 25.2123 9.93807C25.3188 9.80983 25.3689 9.64819 25.3543 9.48238L24.7796 3.14531C24.7647 2.97919 24.6859 2.82918 24.558 2.72242C24.43 2.61565 24.2675 2.56555 24.1023 2.58046L22.627 2.71377L22.649 2.96219L24.125 2.82888C24.2258 2.82023 24.3212 2.85006 24.3984 2.91388C24.4751 2.978 24.5222 3.06836 24.5311 3.16767L25.1058 9.50475C25.1148 9.60435 25.0844 9.70128 25.0208 9.77822C24.9564 9.85487 24.8664 9.90229 24.7668 9.91123L22.7215 10.0964L22.7433 10.3449Z"
      fill="#292929"
    />
    <path
      d="M22.4107 17.1402C22.4107 17.7342 21.929 18.2159 21.3353 18.2159H5.48587C4.89209 18.2159 4.41016 17.7342 4.41016 17.1402V16.136C4.41016 15.5419 4.89209 15.0603 5.48587 15.0603H21.3353C21.929 15.0603 22.4107 15.5419 22.4107 16.136V17.1402Z"
      fill="#333333"
    />
    <path
      d="M23.8093 20.8408C23.8093 21.4348 23.3274 21.9165 22.7336 21.9165H4.08743C3.49336 21.9165 3.01172 21.4348 3.01172 20.8408V17.7138C3.01172 17.1198 3.49336 16.6384 4.08743 16.6384H22.7336C23.3271 16.6384 23.8093 17.1198 23.8093 17.7138V20.8408Z"
      fill="#FBC756"
    />
    <path
      d="M22.9123 1.07601V15.1316C22.9123 15.7271 22.43 16.2073 21.8366 16.2073H4.98362C4.43727 16.2073 3.98754 15.8029 3.91894 15.2732C3.91029 15.2282 3.9082 15.1805 3.9082 15.1313V1.07571C3.9082 0.481939 4.38985 0 4.98362 0H21.8366C22.43 0 22.9123 0.482237 22.9123 1.07601Z"
      fill="#FBC756"
    />
    <path
      d="M23.5577 9.04193C23.5577 9.63571 23.076 10.1176 22.482 10.1176H4.19456C3.60049 10.1176 3.11914 9.63571 3.11914 9.04193V2.94046C3.11914 2.34639 3.60049 1.86475 4.19456 1.86475H22.482C23.0757 1.86475 23.5577 2.34609 23.5577 2.94046V9.04193Z"
      fill="#FBC756"
    />
    <path
      d="M5.48599 9.64559C4.71506 9.64559 4.08789 9.01811 4.08789 8.24719V3.72932C4.08789 2.9581 4.71506 2.33032 5.48599 2.33032H21.3354C22.1063 2.33032 22.7341 2.9578 22.7341 3.72932V8.24689C22.7341 9.01811 22.1063 9.64529 21.3354 9.64529L5.48599 9.64559Z"
      fill="#666666"
    />
    <path
      d="M20.9923 10.9724C20.8414 11.2691 20.6673 11.5811 20.4997 11.8694C20.4135 12.018 20.3297 12.1602 20.2539 12.2891C20.0115 12.6935 19.8283 12.9798 19.8283 12.9798C19.8283 13.0504 19.8221 13.1193 19.809 13.1858C19.7791 13.3409 19.7147 13.485 19.6238 13.6075C19.4308 13.8783 19.112 14.0552 18.7526 14.0552H8.30506C7.94599 14.0552 7.62719 13.8783 7.43424 13.6075C7.34328 13.485 7.27885 13.3406 7.24873 13.1858C7.23591 13.119 7.22965 13.0504 7.22965 12.9798C7.22965 12.9798 6.99076 12.6935 6.67017 12.2891C6.56668 12.1599 6.45515 12.018 6.33884 11.8694C6.11755 11.5811 5.88105 11.2691 5.67199 10.9724C5.17961 10.2838 4.82443 9.68164 5.07852 9.68164H21.3353C21.5882 9.68164 21.3493 10.2841 20.9923 10.9724Z"
      fill="#333333"
    />
    <path
      d="M5.25325 21.0217C5.25325 21.2547 5.06447 21.4431 4.83155 21.4431C4.59923 21.4431 4.41016 21.2547 4.41016 21.0217C4.41016 20.7891 4.59923 20.6003 4.83155 20.6003C5.06477 20.6003 5.25325 20.7888 5.25325 21.0217Z"
      fill="white"
    />
    <path
      d="M22.3294 21.0217C22.3294 21.2547 22.1406 21.4431 21.9077 21.4431C21.6754 21.4431 21.4863 21.2547 21.4863 21.0217C21.4863 20.7891 21.6754 20.6003 21.9077 20.6003C22.1406 20.6003 22.3294 20.7888 22.3294 21.0217Z"
      fill="white"
    />
    <path
      d="M18.7848 19.4443C18.7848 19.6817 18.5921 19.8744 18.3542 19.8744H8.69988C8.46219 19.8744 8.26953 19.6817 8.26953 19.4443V18.3951C8.26953 18.1574 8.46249 17.9651 8.69988 17.9651H18.3542C18.5921 17.9651 18.7848 18.1574 18.7848 18.3951V19.4443Z"
      fill="#C99F45"
    />
    <path
      d="M16.7169 20.4391C16.7169 20.6768 16.5242 20.8692 16.2868 20.8692H10.5316C10.2942 20.8692 10.1016 20.6765 10.1016 20.4391V20.0016C10.1016 19.7639 10.2945 19.5713 10.5316 19.5713H16.2868C16.5242 19.5713 16.7169 19.7639 16.7169 20.0016V20.4391Z"
      fill="#333333"
    />
    <path
      d="M14.5173 18.2162C14.5173 18.3525 14.4073 18.4631 14.2704 18.4631H12.1646C12.0283 18.4631 11.918 18.3525 11.918 18.2162C11.918 18.0796 12.0283 17.9692 12.1646 17.9692H14.2704C14.4073 17.9689 14.5173 18.0796 14.5173 18.2162Z"
      fill="#333333"
    />
    <path
      d="M9.74405 20.1701C9.74405 20.4075 9.55139 20.6002 9.3137 20.6002H3.7738C3.53611 20.6002 3.34375 20.4075 3.34375 20.1701V17.965C3.34375 17.727 3.53611 17.5347 3.7738 17.5347H8.23799C8.47598 17.5347 8.66864 17.7273 8.66864 17.965L9.74405 20.1701Z"
      fill="#FBC756"
    />
    <path
      d="M8.92711 19.7224C8.92711 20.1524 8.73564 20.1524 8.49705 20.1524H4.33825C4.09936 20.1524 3.9082 19.9589 3.9082 19.7224V18.3583C3.9082 18.1218 4.09966 17.9282 4.33825 17.9282H7.61937C7.85825 17.9282 8.14664 18.1498 8.28233 18.3583C8.38313 18.5113 8.68434 18.9437 8.83495 19.3308C8.89072 19.4728 8.92711 19.6084 8.92711 19.7224Z"
      fill="#B2B2B2"
    />
    <path
      d="M8.83466 19.331C8.75503 19.413 8.63513 19.413 8.49705 19.413H4.33825C4.09937 19.413 3.9082 19.2191 3.9082 18.983V18.3588C3.9082 18.1223 4.09967 17.9287 4.33825 17.9287H7.61937C7.85825 17.9287 8.14664 18.1503 8.28233 18.3588C8.38313 18.5115 8.68405 18.9439 8.83466 19.331Z"
      fill="#CCCCCC"
    />
    <path
      d="M8.13057 19.4442C8.13057 19.6815 7.93821 19.8742 7.70052 19.8742H4.8408C4.60281 19.8742 4.41016 19.6815 4.41016 19.4442V18.8525C4.41016 18.6148 4.60281 18.4221 4.8408 18.4221H7.70052C7.9385 18.4221 8.13057 18.6148 8.13057 18.8525V19.4442Z"
      fill="#E6E6E6"
    />
    <path
      d="M7.59167 19.1409C7.59167 19.3783 7.39901 19.5709 7.16132 19.5709H5.37732C5.13963 19.5709 4.94727 19.3783 4.94727 19.1409V18.9399C4.94727 18.7019 5.13993 18.5095 5.37732 18.5095H7.16132C7.39901 18.5095 7.59167 18.7022 7.59167 18.9399V19.1409Z"
      fill="white"
    />
    <path
      d="M17.1133 20.1701C17.1133 20.4075 17.3059 20.6002 17.5436 20.6002H23.0835C23.3212 20.6002 23.5139 20.4075 23.5139 20.1701V17.965C23.5139 17.727 23.3212 17.5347 23.0835 17.5347H18.6193C18.3814 17.5347 18.189 17.7273 18.189 17.965L17.1133 20.1701Z"
      fill="#FBC756"
    />
    <path
      d="M17.9297 19.7224C17.9297 20.1524 18.1214 20.1524 18.3603 20.1524H22.5185C22.7574 20.1524 22.9489 19.9589 22.9489 19.7224V18.3583C22.9489 18.1218 22.7571 17.9282 22.5185 17.9282H19.238C18.9991 17.9282 18.7108 18.1498 18.5751 18.3583C18.474 18.5113 18.1724 18.9437 18.0221 19.3308C17.9664 19.4728 17.9297 19.6084 17.9297 19.7224Z"
      fill="#B2B2B2"
    />
    <path
      d="M18.0234 19.331C18.1031 19.413 18.2232 19.413 18.3613 19.413H22.5195C22.7584 19.413 22.9499 19.2191 22.9499 18.983V18.3588C22.9499 18.1223 22.7581 17.9287 22.5195 17.9287H19.239C19.0001 17.9287 18.7117 18.1503 18.5761 18.3588C18.4753 18.5115 18.1737 18.9439 18.0234 19.331Z"
      fill="#CCCCCC"
    />
    <path
      d="M18.7266 19.4442C18.7266 19.6815 18.9195 19.8742 19.1566 19.8742H22.0166C22.2543 19.8742 22.447 19.6815 22.447 19.4442V18.8525C22.447 18.6148 22.254 18.4221 22.0166 18.4221H19.1566C18.9192 18.4221 18.7266 18.6148 18.7266 18.8525V19.4442Z"
      fill="#E6E6E6"
    />
    <path
      d="M19.2656 19.1409C19.2656 19.3783 19.4583 19.5709 19.6963 19.5709H21.4803C21.718 19.5709 21.91 19.3783 21.91 19.1409V18.9399C21.91 18.7019 21.7177 18.5095 21.4803 18.5095H19.6963C19.4583 18.5095 19.2656 18.7022 19.2656 18.9399V19.1409Z"
      fill="white"
    />
    <path
      d="M14.8815 21.6802C14.8815 21.8108 14.7756 21.9169 14.6444 21.9169H12.1548C12.0238 21.9169 11.918 21.8111 11.918 21.6802C11.918 21.5495 12.0238 21.4434 12.1548 21.4434H14.6444C14.7753 21.4434 14.8815 21.5495 14.8815 21.6802Z"
      fill="#FBC756"
    />
    <path
      d="M20.9925 10.9724C20.8416 11.2692 20.6674 11.5811 20.4998 11.8695H6.33871C6.11743 11.5811 5.88093 11.2692 5.67188 10.9724H20.9925Z"
      fill="#1A1A1A"
    />
    <path
      d="M20.2537 12.2896C20.0112 12.6939 19.8281 12.9803 19.8281 12.9803C19.8281 13.0509 19.8218 13.1198 19.8087 13.1863H7.24849C7.23566 13.1195 7.2294 13.0509 7.2294 12.9803C7.2294 12.9803 6.99052 12.6939 6.66992 12.2896H20.2537Z"
      fill="#1A1A1A"
    />
    <path
      d="M19.6251 13.6079C19.4321 13.8787 19.1133 14.0556 18.7539 14.0556H8.30637C7.9473 14.0556 7.6285 13.8787 7.43555 13.6079H19.6251Z"
      fill="#1A1A1A"
    />
    <path
      d="M10.9547 16.1899V16.6199C10.9547 16.8567 10.7615 17.0503 10.5247 17.0503H8.33659C8.0998 17.0503 7.90625 16.8567 7.90625 16.6199V16.1899C7.90625 16.0285 7.99661 15.8863 8.13021 15.8156C8.19046 15.7789 8.26114 15.7595 8.33659 15.7595H10.5247C10.5614 15.7595 10.5978 15.7637 10.6321 15.7747C10.8173 15.8219 10.9547 15.9898 10.9547 16.1899Z"
      fill="#333333"
    />
    <path
      d="M10.6308 15.7748V16.2436C10.6308 16.4801 10.4375 16.6736 10.2007 16.6736H8.55896C8.32246 16.6736 8.12891 16.4801 8.12891 16.2436V15.8153C8.18915 15.7787 8.25983 15.7593 8.33529 15.7593H10.5234C10.5598 15.7596 10.5962 15.7638 10.6308 15.7748Z"
      fill="#1A1A1A"
    />
    <path
      d="M18.6361 16.1899V16.6199C18.6361 16.8567 18.4425 17.0503 18.2057 17.0503H16.0176C15.7808 17.0503 15.5879 16.8567 15.5879 16.6199V16.1899C15.5879 16.0285 15.678 15.8863 15.8113 15.8156C15.8718 15.7789 15.9425 15.7595 16.0176 15.7595H18.2057C18.2424 15.7595 18.2791 15.7637 18.3134 15.7747C18.4986 15.8219 18.6361 15.9898 18.6361 16.1899Z"
      fill="#333333"
    />
    <path
      d="M18.3127 15.7748V16.2436C18.3127 16.4801 18.1194 16.6736 17.8826 16.6736H16.2409C16.0041 16.6736 15.8105 16.4801 15.8105 16.2436V15.8153C15.8711 15.7787 15.9418 15.7593 16.0169 15.7593H18.205C18.2417 15.7596 18.2784 15.7638 18.3127 15.7748Z"
      fill="#1A1A1A"
    />
    <path
      d="M16.1171 19.5715V19.7892C16.1171 20.0278 15.9232 20.2193 15.6867 20.2193H11.0612C10.8244 20.2193 10.6309 20.0275 10.6309 19.7892V19.5715H16.1171Z"
      fill="#1A1A1A"
    />
    <path
      d="M23.2704 16.8623C23.2704 16.9666 23.1857 17.0507 23.0819 17.0507H19.8118C19.7077 17.0507 19.623 16.9666 19.623 16.8623C19.623 16.7582 19.7077 16.6741 19.8118 16.6741H23.0819C23.1857 16.6741 23.2704 16.7582 23.2704 16.8623Z"
      fill="#FEEECB"
    />
    <path
      d="M18.1879 17.7847C18.1879 17.884 18.1071 17.9652 18.0075 17.9652H8.65113C8.55152 17.9652 8.4707 17.884 8.4707 17.7847C8.4707 17.6851 8.55182 17.604 8.65113 17.604H18.0075C18.1071 17.604 18.1879 17.6851 18.1879 17.7847Z"
      fill="#FEEECB"
    />
    <path
      d="M22.4096 1.04931C22.4096 1.27179 22.2295 1.45222 22.0064 1.45222H12.6298C12.4073 1.45222 12.2266 1.27179 12.2266 1.04931C12.2266 0.826533 12.407 0.645508 12.6298 0.645508H22.0064C22.2292 0.645508 22.4096 0.826533 22.4096 1.04931Z"
      fill="#FEEECB"
    />
    <path
      d="M6.10734 15.2197L3.91894 15.2736C3.91029 15.2286 3.9082 15.1809 3.9082 15.1317V11.2437L4.34064 11.0612C4.55984 10.9684 4.81184 11.0719 4.90429 11.289L6.33489 14.6563C6.42734 14.8734 6.32624 15.1269 6.10734 15.2197Z"
      fill="#C99F45"
    />
    <path
      d="M20.7001 15.2197L22.8879 15.2736C22.8966 15.2286 22.8987 15.1809 22.8987 15.1317V11.2437L22.4668 11.0612C22.2473 10.9684 21.9956 11.0719 21.9029 11.289L20.4717 14.6563C20.3792 14.8734 20.4806 15.1269 20.7001 15.2197Z"
      fill="#C99F45"
    />
    <path
      d="M18.1876 6.94956C18.1876 7.18755 17.995 7.37991 17.7573 7.37991H9.26463C9.02664 7.37991 8.83398 7.18725 8.83398 6.94956V5.10949C8.83398 4.8721 9.02694 4.67944 9.26463 4.67944H17.7573C17.995 4.67944 18.1876 4.8721 18.1876 5.10949V6.94956Z"
      fill="#808080"
    />
    <path
      d="M22.3317 2.32787V3.72418C22.3317 3.96306 22.1381 4.15422 21.9013 4.15422H4.8405C4.60579 4.15422 4.41165 3.96485 4.41016 3.72835C4.41016 3.72597 4.41016 3.72597 4.41016 3.72388V2.38811C4.70481 2.14923 5.07938 2.00757 5.48587 2.00757H21.3359C21.7057 2.00757 22.0498 2.12537 22.3317 2.32787Z"
      fill="#4D4D4D"
    />
    <path
      d="M22.3305 2.32787C22.0487 2.12537 21.7045 2.00757 21.3347 2.00757H5.48475C5.07827 2.00757 4.70369 2.14953 4.40904 2.38811C4.01538 2.70214 3.76367 3.18617 3.76367 3.72835V8.24652C3.76367 9.19549 4.53609 9.96761 5.48505 9.96761H21.335C22.2837 9.96761 23.0558 9.19549 23.0558 8.24652V3.72835C23.0558 3.15217 22.7692 2.63981 22.3305 2.32787ZM22.4099 8.24682C22.4099 8.8403 21.9282 9.32224 21.335 9.32224H5.48505C4.89098 9.32224 4.40934 8.8403 4.40934 8.24682V3.72865C4.40934 3.72626 4.40934 3.72626 4.40934 3.72418C4.41113 3.13249 4.89337 2.65264 5.48505 2.65264H21.335C21.7845 2.65264 22.1695 2.9282 22.3308 3.31948C22.3824 3.44653 22.4102 3.58431 22.4102 3.72835V8.24682H22.4099Z"
      fill="#333333"
    />
    <path
      d="M10.3616 8.87478C10.3616 9.11276 10.169 9.30512 9.93159 9.30512H6.4942C6.25681 9.30512 6.06445 9.11247 6.06445 8.87478V7.47668C6.06445 7.23869 6.25681 7.04663 6.4942 7.04663H9.93159C10.169 7.04663 10.3616 7.23899 10.3616 7.47668V8.87478Z"
      fill="#4D4D4D"
    />
    <path
      d="M20.7855 8.87478C20.7855 9.11276 20.5928 9.30512 20.3557 9.30512H16.9186C16.6809 9.30512 16.4883 9.11247 16.4883 8.87478V7.47668C16.4883 7.23869 16.6809 7.04663 16.9186 7.04663H20.3557C20.5928 7.04663 20.7855 7.23899 20.7855 7.47668V8.87478Z"
      fill="#4D4D4D"
    />
    <path
      d="M14.0148 8.7673C14.0148 8.85647 13.9426 8.92864 13.8535 8.92864H8.99562C8.90645 8.92864 8.83398 8.85647 8.83398 8.7673C8.83398 8.67813 8.90645 8.60596 8.99562 8.60596H13.8535C13.9426 8.60596 14.0148 8.67813 14.0148 8.7673Z"
      fill="#333333"
    />
    <path
      d="M9.15475 8.72422C9.19352 8.82084 9.1464 8.92999 9.04948 8.96906L6.90253 9.82856C6.8062 9.86733 6.69646 9.82051 6.65798 9.72358C6.61951 9.62696 6.66633 9.51751 6.76296 9.47903L8.90991 8.61954C9.00624 8.58077 9.11598 8.62789 9.15475 8.72422Z"
      fill="#333333"
    />
    <path
      d="M21.7059 8.7673C21.7059 8.85647 21.6338 8.92864 21.5443 8.92864H16.6867C16.5976 8.92864 16.5254 8.85647 16.5254 8.7673C16.5254 8.67813 16.5976 8.60596 16.6867 8.60596H21.5443C21.6338 8.60596 21.7059 8.67813 21.7059 8.7673Z"
      fill="#333333"
    />
    <path
      d="M16.8441 8.72422C16.8829 8.82084 16.836 8.92999 16.7397 8.96906L14.5922 9.82856C14.4955 9.86733 14.3864 9.82051 14.3476 9.72358C14.3088 9.62696 14.3557 9.51751 14.4523 9.47903L16.5995 8.61954C16.6962 8.58077 16.8059 8.62789 16.8441 8.72422Z"
      fill="#333333"
    />
    <path
      d="M17.6053 10.0135C17.6053 10.1966 17.4574 10.3451 17.274 10.3451H9.76162C9.57821 10.3451 9.42969 10.1966 9.42969 10.0135C9.42969 9.83035 9.57821 9.68213 9.76162 9.68213H17.274C17.4574 9.68183 17.6053 9.83005 17.6053 10.0135Z"
      fill="#1A1A1A"
    />
    <path
      d="M21.4406 5.59942C21.4406 5.83711 21.248 6.02947 21.0103 6.02947H14.446C14.208 6.02947 14.0156 5.83681 14.0156 5.59942V3.87267C14.0156 3.63528 14.2083 3.44263 14.446 3.44263H21.0103C21.248 3.44263 21.4406 3.63528 21.4406 3.87267V5.59942Z"
      fill="white"
    />
  </svg>