<svg width="512" height="512" viewBox="0 0 34 34" fill="none" xmlns="http://www.w3.org/2000/svg">
<path d="M23.3333 33.3333C22.25 33.3333 21.2153 33.1667 20.2292 32.8333C19.2431 32.5 18.3472 32.0417 17.5417 31.4583L16.1667 32.8333C15.8611 33.1389 15.4722 33.2917 15 33.2917C14.5278 33.2917 14.1389 33.1389 13.8333 32.8333C13.5278 32.5278 13.375 32.1389 13.375 31.6667C13.375 31.1944 13.5278 30.8056 13.8333 30.5L15.2083 29.125C14.625 28.3194 14.1667 27.4236 13.8333 26.4375C13.5 25.4514 13.3333 24.4167 13.3333 23.3333C13.3333 20.5556 14.3056 18.1875 16.25 16.2292C18.1944 14.2708 20.5556 13.3056 23.3333 13.3333H33.2917V23.3333C33.3472 26.1111 32.3958 28.4722 30.4375 30.4167C28.4792 32.3611 26.1111 33.3333 23.3333 33.3333ZM18.8333 27.8333C19.1389 28.1389 19.5278 28.2917 20 28.2917C20.4722 28.2917 20.8611 28.1389 21.1667 27.8333L24.5 24.5C24.8056 24.1944 24.9583 23.8056 24.9583 23.3333C24.9583 22.8611 24.8056 22.4722 24.5 22.1667C24.1944 21.8611 23.8056 21.7083 23.3333 21.7083C22.8611 21.7083 22.4722 21.8611 22.1667 22.1667L18.8333 25.5C18.5278 25.8056 18.375 26.1944 18.375 26.6667C18.375 27.1389 18.5278 27.5278 18.8333 27.8333ZM5.83333 18.3333C4.22222 18.3333 2.84722 17.7639 1.70833 16.625C0.569444 15.4861 0 14.1111 0 12.5V6.66667H5.83333C7.44444 6.66667 8.81944 7.23611 9.95833 8.375C11.0972 9.51389 11.6667 10.8889 11.6667 12.5V18.3333H5.83333ZM15 8.33333V4.16667C15 3 15.4028 2.01389 16.2083 1.20833C17.0139 0.402778 18 0 19.1667 0H23.3333V4.16667C23.3333 5.33333 22.9306 6.31944 22.125 7.125C21.3194 7.93056 20.3333 8.33333 19.1667 8.33333H15Z" fill="#319D38"/>
</svg>
